<?xml version="1.0" encoding="UTF-8" standalone="no"?>
<!DOCTYPE svg PUBLIC "-//W3C//DTD SVG 1.1//EN" "http://www.w3.org/Graphics/SVG/1.1/DTD/svg11.dtd">
<svg version="1.1" xmlns="http://www.w3.org/2000/svg" xmlns:xlink="http://www.w3.org/1999/xlink" preserveAspectRatio="xMidYMid meet" viewBox="0 0 640 640" width="640" height="640"><defs><path d="M389.87 129.16C388.8 144.51 375.48 156.1 360.12 155.03C359.9 155.01 359.68 155 359.46 154.98C344.1 153.91 332.52 140.59 333.59 125.23C334.66 109.87 347.97 98.29 363.33 99.36C363.55 99.37 363.77 99.39 363.99 99.41C379.35 100.48 390.94 113.8 389.87 129.16Z" id="c2Zx4mUsX"></path><path d="M252.82 486.75C253.89 471.39 267.21 459.8 282.57 460.87C282.79 460.89 283.01 460.91 283.23 460.93C298.59 462 310.17 475.31 309.1 490.67C308.03 506.03 294.71 517.61 279.36 516.54C279.14 516.53 278.92 516.51 278.69 516.49C263.34 515.42 251.75 502.1 252.82 486.75Z" id="aw7sXFaS9"></path><path d="M469.98 445.65C455.81 439.64 449.18 423.28 455.18 409.11C455.27 408.9 455.36 408.7 455.45 408.5C461.45 394.32 477.81 387.69 491.99 393.7C506.16 399.7 512.79 416.06 506.79 430.24C506.7 430.44 506.61 430.64 506.52 430.84C500.52 445.02 484.16 451.65 469.98 445.65Z" id="mlKdX0XYe"></path><path d="M167.24 186.9C181.42 192.9 188.04 209.26 182.04 223.43C181.95 223.64 181.87 223.84 181.77 224.04C175.77 238.22 159.41 244.85 145.24 238.85C131.06 232.84 124.43 216.48 130.43 202.31C130.52 202.1 130.61 201.9 130.7 201.7C136.7 187.52 153.06 180.89 167.24 186.9Z" id="b5RIOyH8H"></path><path d="M479.17 210.55C468.43 221.58 450.78 221.81 439.75 211.07C439.59 210.91 439.43 210.76 439.28 210.6C428.25 199.86 428.02 182.21 438.76 171.18C449.51 160.15 467.16 159.92 478.18 170.66C478.34 170.82 478.5 170.97 478.65 171.13C489.68 181.88 489.91 199.52 479.17 210.55Z" id="b25PTsMbCo"></path><path d="M154.51 418.11C165.25 407.08 182.9 406.85 193.93 417.6C194.09 417.75 194.24 417.91 194.4 418.07C205.43 428.81 205.66 446.46 194.91 457.48C184.17 468.51 166.52 468.74 155.49 458C155.34 457.84 155.18 457.69 155.02 457.53C144 446.79 143.77 429.14 154.51 418.11Z" id="b4X5CFbS6"></path><path d="M374.19 490.39C366.8 476.88 371.76 459.94 385.27 452.55C385.46 452.45 385.66 452.34 385.85 452.24C399.36 444.85 416.3 449.81 423.69 463.31C431.08 476.82 426.12 493.76 412.62 501.15C412.42 501.26 412.23 501.36 412.03 501.46C398.53 508.85 381.59 503.89 374.19 490.39Z" id="i1RtxZ2qXc"></path><path d="M272.48 127.93C279.87 141.43 274.91 158.37 261.41 165.76C261.21 165.87 261.02 165.97 260.82 166.07C247.31 173.46 230.38 168.51 222.98 155C215.59 141.5 220.55 124.56 234.06 117.17C234.25 117.06 234.45 116.96 234.64 116.85C248.15 109.46 265.09 114.42 272.48 127.93Z" id="a1qMmmMfLd"></path><path d="M513.53 334.44C498.48 337.68 483.66 328.09 480.43 313.04C480.38 312.82 480.34 312.61 480.3 312.39C477.06 297.34 486.65 282.51 501.7 279.28C516.75 276.05 531.57 285.63 534.8 300.68C534.85 300.9 534.9 301.12 534.94 301.34C538.17 316.39 528.59 331.21 513.53 334.44Z" id="bjj8LIx0N"></path><path d="M133.36 307.49C148.41 304.26 163.23 313.84 166.46 328.89C166.51 329.11 166.56 329.33 166.6 329.54C169.83 344.6 160.25 359.42 145.19 362.65C130.14 365.88 115.32 356.3 112.09 341.25C112.04 341.03 112 340.81 111.96 340.6C108.72 325.54 118.31 310.72 133.36 307.49Z" id="a3pPSMfD1"></path><path d="M442.21 51.76C437.37 66.37 421.6 74.3 406.98 69.46C406.77 69.39 406.56 69.31 406.36 69.24C391.74 64.4 383.82 48.63 388.66 34.01C393.5 19.4 409.27 11.47 423.88 16.31C424.09 16.38 424.3 16.46 424.51 16.53C439.12 21.37 447.05 37.14 442.21 51.76Z" id="b8VGWEkzM"></path><path d="M588.24 442.22C573.63 437.38 565.7 421.61 570.54 406.99C570.61 406.78 570.69 406.57 570.76 406.37C575.6 391.75 591.37 383.83 605.99 388.67C620.6 393.51 628.52 409.28 623.68 423.89C623.62 424.1 623.54 424.31 623.47 424.52C618.63 439.13 602.86 447.06 588.24 442.22Z" id="bK4B7w7dQ"></path><path d="M197.78 588.25C202.62 573.64 218.39 565.71 233.01 570.55C233.22 570.62 233.42 570.69 233.63 570.77C248.25 575.61 256.17 591.38 251.33 605.99C246.49 620.61 230.72 628.53 216.11 623.69C215.9 623.62 215.69 623.55 215.48 623.48C200.86 618.64 192.94 602.87 197.78 588.25Z" id="c2x5MoLB92"></path><path d="M51.75 197.79C66.36 202.63 74.29 218.4 69.45 233.01C69.38 233.22 69.3 233.43 69.23 233.64C64.39 248.26 48.62 256.18 34 251.34C19.39 246.5 11.47 230.73 16.3 216.12C16.37 215.91 16.45 215.7 16.52 215.49C21.36 200.87 37.13 192.95 51.75 197.79Z" id="dfDQtWxrX"></path><path d="M613.87 296.99C598.74 299.83 584.17 289.88 581.32 274.74C581.28 274.53 581.24 274.31 581.21 274.09C578.36 258.96 588.32 244.39 603.45 241.54C618.58 238.7 633.15 248.66 636 263.79C636.04 264 636.08 264.22 636.11 264.44C638.96 279.57 629 294.14 613.87 296.99Z" id="e14LFKHcMG"></path><path d="M343.01 613.88C340.17 598.75 350.12 584.18 365.25 581.33C365.47 581.29 365.69 581.25 365.91 581.22C381.04 578.37 395.61 588.33 398.46 603.46C401.3 618.59 391.34 633.16 376.21 636.01C375.99 636.05 375.78 636.09 375.56 636.12C360.43 638.97 345.86 629.01 343.01 613.88Z" id="bLPzyIsYM"></path><path d="M26.12 343.02C41.25 340.17 55.82 350.13 58.66 365.26C58.71 365.48 58.74 365.7 58.78 365.92C61.62 381.05 51.67 395.62 36.54 398.46C21.41 401.31 6.83 391.35 3.99 376.22C3.95 376 3.91 375.79 3.87 375.57C1.03 360.44 10.99 345.86 26.12 343.02Z" id="d1IXe8sZwV"></path><path d="M296.98 26.13C299.82 41.26 289.87 55.83 274.74 58.68C274.52 58.72 274.3 58.76 274.08 58.79C258.95 61.64 244.38 51.68 241.53 36.55C238.69 21.42 248.65 6.85 263.78 4C263.99 3.96 264.21 3.92 264.43 3.89C279.56 1.04 294.13 11 296.98 26.13Z" id="aUDRAzJZi"></path><path d="M77.19 487.16C88.86 477.11 106.46 478.43 116.5 490.1C116.64 490.27 116.79 490.44 116.93 490.61C126.97 502.28 125.65 519.88 113.98 529.92C102.31 539.97 84.71 538.65 74.67 526.98C74.52 526.81 74.38 526.64 74.24 526.47C64.2 514.8 65.52 497.2 77.19 487.16Z" id="e1i9XrZK2P"></path><path d="M152.84 77.2C162.89 88.86 161.57 106.47 149.9 116.51C149.73 116.65 149.56 116.79 149.39 116.94C137.72 126.98 120.12 125.66 110.08 113.99C100.03 102.32 101.35 84.72 113.02 74.68C113.19 74.53 113.36 74.39 113.53 74.25C125.2 64.21 142.8 65.53 152.84 77.2Z" id="a3R1r42YXT"></path><path d="M562.8 152.85C551.14 162.89 533.53 161.58 523.49 149.91C523.35 149.74 523.2 149.57 523.06 149.4C513.02 137.73 514.34 120.13 526.01 110.08C537.68 100.04 555.28 101.36 565.32 113.03C565.47 113.2 565.61 113.37 565.75 113.54C575.79 125.21 574.47 142.81 562.8 152.85Z" id="adBUBPebo"></path></defs><g><g><g><use xlink:href="#c2Zx4mUsX" opacity="1" fill="#09a556" fill-opacity="1"></use><g><use xlink:href="#c2Zx4mUsX" opacity="1" fill-opacity="0" stroke="#000000" stroke-width="1" stroke-opacity="0"></use></g></g><g><use xlink:href="#aw7sXFaS9" opacity="1" fill="#09a556" fill-opacity="1"></use><g><use xlink:href="#aw7sXFaS9" opacity="1" fill-opacity="0" stroke="#000000" stroke-width="1" stroke-opacity="0"></use></g></g><g><use xlink:href="#mlKdX0XYe" opacity="1" fill="#09a556" fill-opacity="1"></use><g><use xlink:href="#mlKdX0XYe" opacity="1" fill-opacity="0" stroke="#000000" stroke-width="1" stroke-opacity="0"></use></g></g><g><use xlink:href="#b5RIOyH8H" opacity="1" fill="#09a556" fill-opacity="1"></use><g><use xlink:href="#b5RIOyH8H" opacity="1" fill-opacity="0" stroke="#000000" stroke-width="1" stroke-opacity="0"></use></g></g><g><use xlink:href="#b25PTsMbCo" opacity="1" fill="#09a556" fill-opacity="1"></use><g><use xlink:href="#b25PTsMbCo" opacity="1" fill-opacity="0" stroke="#000000" stroke-width="1" stroke-opacity="0"></use></g></g><g><use xlink:href="#b4X5CFbS6" opacity="1" fill="#09a556" fill-opacity="1"></use><g><use xlink:href="#b4X5CFbS6" opacity="1" fill-opacity="0" stroke="#000000" stroke-width="1" stroke-opacity="0"></use></g></g><g><use xlink:href="#i1RtxZ2qXc" opacity="1" fill="#09a556" fill-opacity="1"></use><g><use xlink:href="#i1RtxZ2qXc" opacity="1" fill-opacity="0" stroke="#000000" stroke-width="1" stroke-opacity="0"></use></g></g><g><use xlink:href="#a1qMmmMfLd" opacity="1" fill="#09a556" fill-opacity="1"></use><g><use xlink:href="#a1qMmmMfLd" opacity="1" fill-opacity="0" stroke="#000000" stroke-width="1" stroke-opacity="0"></use></g></g><g><use xlink:href="#bjj8LIx0N" opacity="1" fill="#09a556" fill-opacity="1"></use><g><use xlink:href="#bjj8LIx0N" opacity="1" fill-opacity="0" stroke="#000000" stroke-width="1" stroke-opacity="0"></use></g></g><g><use xlink:href="#a3pPSMfD1" opacity="1" fill="#09a556" fill-opacity="1"></use><g><use xlink:href="#a3pPSMfD1" opacity="1" fill-opacity="0" stroke="#000000" stroke-width="1" stroke-opacity="0"></use></g></g><g><use xlink:href="#b8VGWEkzM" opacity="1" fill="#09a556" fill-opacity="1"></use><g><use xlink:href="#b8VGWEkzM" opacity="1" fill-opacity="0" stroke="#000000" stroke-width="1" stroke-opacity="0"></use></g></g><g><use xlink:href="#bK4B7w7dQ" opacity="1" fill="#09a556" fill-opacity="1"></use><g><use xlink:href="#bK4B7w7dQ" opacity="1" fill-opacity="0" stroke="#000000" stroke-width="1" stroke-opacity="0"></use></g></g><g><use xlink:href="#c2x5MoLB92" opacity="1" fill="#09a556" fill-opacity="1"></use><g><use xlink:href="#c2x5MoLB92" opacity="1" fill-opacity="0" stroke="#000000" stroke-width="1" stroke-opacity="0"></use></g></g><g><use xlink:href="#dfDQtWxrX" opacity="1" fill="#09a556" fill-opacity="1"></use><g><use xlink:href="#dfDQtWxrX" opacity="1" fill-opacity="0" stroke="#000000" stroke-width="1" stroke-opacity="0"></use></g></g><g><use xlink:href="#e14LFKHcMG" opacity="1" fill="#09a556" fill-opacity="1"></use><g><use xlink:href="#e14LFKHcMG" opacity="1" fill-opacity="0" stroke="#000000" stroke-width="1" stroke-opacity="0"></use></g></g><g><use xlink:href="#bLPzyIsYM" opacity="1" fill="#09a556" fill-opacity="1"></use><g><use xlink:href="#bLPzyIsYM" opacity="1" fill-opacity="0" stroke="#000000" stroke-width="1" stroke-opacity="0"></use></g></g><g><use xlink:href="#d1IXe8sZwV" opacity="1" fill="#09a556" fill-opacity="1"></use><g><use xlink:href="#d1IXe8sZwV" opacity="1" fill-opacity="0" stroke="#000000" stroke-width="1" stroke-opacity="0"></use></g></g><g><use xlink:href="#aUDRAzJZi" opacity="1" fill="#09a556" fill-opacity="1"></use><g><use xlink:href="#aUDRAzJZi" opacity="1" fill-opacity="0" stroke="#000000" stroke-width="1" stroke-opacity="0"></use></g></g><g><use xlink:href="#e1i9XrZK2P" opacity="1" fill="#09a556" fill-opacity="1"></use><g><use xlink:href="#e1i9XrZK2P" opacity="1" fill-opacity="0" stroke="#000000" stroke-width="1" stroke-opacity="0"></use></g></g><g><use xlink:href="#a3R1r42YXT" opacity="1" fill="#09a556" fill-opacity="1"></use><g><use xlink:href="#a3R1r42YXT" opacity="1" fill-opacity="0" stroke="#000000" stroke-width="1" stroke-opacity="0"></use></g></g><g><use xlink:href="#adBUBPebo" opacity="1" fill="#09a556" fill-opacity="1"></use><g><use xlink:href="#adBUBPebo" opacity="1" fill-opacity="0" stroke="#000000" stroke-width="1" stroke-opacity="0"></use></g></g></g></g></svg>